<mxfile host="app.diagrams.net" modified="2024-01-31T03:05:42.311Z" agent="Mozilla/5.0 (Macintosh; Intel Mac OS X 10_15_7) AppleWebKit/537.36 (KHTML, like Gecko) Chrome/120.0.0.0 Safari/537.36" version="22.1.18" etag="9tzNRgpPhIe9fcD4F2I6" type="github">
  <diagram name="Page-1" id="Ulmcyo-dOca-As2Rgz6d">
    <mxGraphModel>
      <root>
        <mxCell id="0" />
        <mxCell id="1" parent="0" />
      </root>
    </mxGraphModel>
  </diagram>
</mxfile>
